<svg xmlns="http://www.w3.org/2000/svg" xmlns:xlink="http://www.w3.org/1999/xlink" style="width: 100%; height: 100%"
    viewBox="0 0 100 100" preserveAspectRatio="none" width="100" height="100">
    <defs><svg width="100" height="100" viewBox="0 0 100 100" fill="none" xmlns="http://www.w3.org/2000/svg"
            id="svg-807685817_720">
            <path
                d="M8.33203 12.5H33.332C37.7523 12.5 41.9915 14.2559 45.1171 17.3816C48.2428 20.5072 49.9987 24.7464 49.9987 29.1667V87.5C49.9987 84.1848 48.6817 81.0054 46.3375 78.6612C43.9933 76.317 40.8139 75 37.4987 75H8.33203V12.5Z"
                stroke="#000000" stroke-width="3px" stroke-linecap="round" stroke-linejoin="round" fill="none"></path>
            <path
                d="M91.6657 12.5H66.6657C62.2454 12.5 58.0062 14.2559 54.8806 17.3816C51.755 20.5072 49.999 24.7464 49.999 29.1667V87.5C49.999 84.1848 51.316 81.0054 53.6602 78.6612C56.0044 76.317 59.1838 75 62.499 75H91.6657V12.5Z"
                stroke="#000000" stroke-width="3px" stroke-linecap="round" stroke-linejoin="round" fill="none"></path>
        </svg></defs>
    <use href="#svg-807685817_720"></use>
</svg>