<svg viewBox="0 0 520 342" xmlns:xlink="http://www.w3.org/1999/xlink" xmlns="http://www.w3.org/2000/svg" width="520" height="342" fill="none"><rect width="520" height="342" fill="#fff" rx="10"/><rect width="200" height="16" x="20" y="20" fill="#E9E2DA" rx="8"/><rect width="100" height="12" x="20" y="56" fill="#F6F2ED" rx="6"/><rect width="150" height="12" x="350" y="56" fill="#F6F2ED" rx="6"/><rect width="30" height="12" x="27" y="90" fill="#F6F2ED" rx="6"/><rect width="30" height="12" x="71" y="90" fill="#F6F2ED" rx="6"/><rect width="30" height="12" x="115" y="90" fill="#F6F2ED" rx="6"/><rect width="30" height="12" x="159" y="90" fill="#F6F2ED" rx="6"/><rect width="30" height="12" x="203" y="90" fill="#F6F2ED" rx="6"/><rect width="30" height="12" x="247" y="90" fill="#F6F2ED" rx="6"/><rect width="30" height="12" x="291" y="90" fill="#F6F2ED" rx="6"/><rect width="37" height="37" x="155.5" y="114.5" fill="#fff" rx="18.5"/><rect width="37" height="37" x="155.5" y="114.5" stroke="#FAF8F5" rx="18.5"/><circle cx="174" cy="133" r="8" fill="#F6F2ED"/><rect width="37" height="37" x="199.5" y="114.5" fill="#fff" rx="18.5"/><rect width="37" height="37" x="199.5" y="114.5" stroke="#FAF8F5" rx="18.5"/><circle cx="218" cy="133" r="8" fill="#F6F2ED"/><rect width="37" height="37" x="243.5" y="114.5" fill="#fff" rx="18.5"/><rect width="37" height="37" x="243.5" y="114.5" stroke="#FAF8F5" rx="18.5"/><circle cx="262" cy="133" r="8" fill="#F6F2ED"/><rect width="37" height="37" x="287.5" y="114.5" fill="#fff" rx="18.5"/><rect width="37" height="37" x="287.5" y="114.5" stroke="#FAF8F5" rx="18.5"/><circle cx="306" cy="133" r="8" fill="#F6F2ED"/><rect width="37" height="37" x="23.5" y="158.5" fill="#fff" rx="18.5"/><rect width="37" height="37" x="23.5" y="158.5" stroke="#FAF8F5" rx="18.5"/><circle cx="42" cy="177" r="8" fill="#F6F2ED"/><rect width="37" height="37" x="67.5" y="158.5" fill="#fff" rx="18.5"/><rect width="37" height="37" x="67.5" y="158.5" stroke="#FAF8F5" rx="18.5"/><circle cx="86" cy="177" r="8" fill="#F6F2ED"/><rect width="37" height="37" x="111.5" y="158.5" fill="#fff" rx="18.5"/><rect width="37" height="37" x="111.5" y="158.5" stroke="#FAF8F5" rx="18.5"/><circle cx="130" cy="177" r="8" fill="#F6F2ED"/><rect width="37" height="37" x="155.5" y="158.5" fill="#fff" rx="18.5"/><rect width="37" height="37" x="155.5" y="158.5" stroke="#FAF8F5" rx="18.5"/><circle cx="174" cy="177" r="8" fill="#F6F2ED"/><rect width="37" height="37" x="199.5" y="158.5" stroke="#FAF8F5" rx="18.5"/><circle cx="218" cy="177" r="8" fill="#F6F2ED"/><rect width="37" height="37" x="243.5" y="158.5" fill="#fff" rx="18.5"/><rect width="37" height="37" x="243.5" y="158.5" stroke="#FAF8F5" rx="18.5"/><circle cx="262" cy="177" r="8" fill="#F6F2ED"/><rect width="37" height="37" x="287.5" y="158.5" fill="#fff" rx="18.5"/><rect width="37" height="37" x="287.5" y="158.5" stroke="#FAF8F5" rx="18.5"/><circle cx="306" cy="177" r="8" fill="#F6F2ED"/><rect width="37" height="37" x="23.5" y="200.5" fill="#fff" rx="18.5"/><rect width="37" height="37" x="23.5" y="200.5" stroke="#FAF8F5" rx="18.5"/><circle cx="42" cy="219" r="8" fill="#F6F2ED"/><rect width="37" height="37" x="67.5" y="200.5" fill="#fff" rx="18.5"/><rect width="37" height="37" x="67.5" y="200.5" stroke="#FAF8F5" rx="18.5"/><circle cx="86" cy="219" r="8" fill="#F6F2ED"/><rect width="37" height="37" x="111.5" y="200.5" fill="#fff" rx="18.5"/><rect width="37" height="37" x="111.5" y="200.5" stroke="#FAF8F5" rx="18.5"/><circle cx="130" cy="219" r="8" fill="#F6F2ED"/><rect width="37" height="37" x="155.5" y="200.5" fill="#fff" rx="18.5"/><rect width="37" height="37" x="155.5" y="200.5" stroke="#FAF8F5" rx="18.5"/><circle cx="174" cy="219" r="8" fill="#F6F2ED"/><rect width="37" height="37" x="199.5" y="200.5" stroke="#FAF8F5" rx="18.5"/><circle cx="218" cy="219" r="8" fill="#F6F2ED"/><rect width="37" height="37" x="243.5" y="200.5" fill="#fff" rx="18.5"/><rect width="37" height="37" x="243.5" y="200.5" stroke="#FAF8F5" rx="18.5"/><circle cx="262" cy="219" r="8" fill="#F6F2ED"/><rect width="37" height="37" x="287.5" y="200.5" fill="#fff" rx="18.5"/><rect width="37" height="37" x="287.5" y="200.5" stroke="#FAF8F5" rx="18.5"/><circle cx="306" cy="219" r="8" fill="#F6F2ED"/><rect width="37" height="37" x="23.5" y="242.5" fill="#fff" rx="18.5"/><rect width="37" height="37" x="23.5" y="242.5" stroke="#FAF8F5" rx="18.5"/><circle cx="42" cy="261" r="8" fill="#F6F2ED"/><rect width="37" height="37" x="67.5" y="242.5" fill="#fff" rx="18.5"/><rect width="37" height="37" x="67.5" y="242.5" stroke="#FAF8F5" rx="18.5"/><circle cx="86" cy="261" r="8" fill="#F6F2ED"/><rect width="37" height="37" x="111.5" y="242.5" fill="#fff" rx="18.5"/><rect width="37" height="37" x="111.5" y="242.5" stroke="#FAF8F5" rx="18.5"/><circle cx="130" cy="261" r="8" fill="#F6F2ED"/><rect width="37" height="37" x="155.5" y="242.5" fill="#fff" rx="18.5"/><rect width="37" height="37" x="155.5" y="242.5" stroke="#FAF8F5" rx="18.5"/><circle cx="174" cy="261" r="8" fill="#F6F2ED"/><rect width="37" height="37" x="199.5" y="242.5" stroke="#FAF8F5" rx="18.5"/><circle cx="218" cy="261" r="8" fill="#F6F2ED"/><rect width="37" height="37" x="243.5" y="242.5" fill="#fff" rx="18.5"/><rect width="37" height="37" x="243.5" y="242.5" stroke="#FAF8F5" rx="18.5"/><circle cx="262" cy="261" r="8" fill="#F6F2ED"/><rect width="37" height="37" x="287.5" y="242.5" fill="#fff" rx="18.5"/><rect width="37" height="37" x="287.5" y="242.5" stroke="#FAF8F5" rx="18.5"/><circle cx="306" cy="261" r="8" fill="#F6F2ED"/><rect width="37" height="37" x="23.5" y="284.5" fill="#fff" rx="18.5"/><rect width="37" height="37" x="23.5" y="284.5" stroke="#FAF8F5" rx="18.5"/><circle cx="42" cy="303" r="8" fill="#F6F2ED"/><rect width="37" height="37" x="67.5" y="284.5" fill="#fff" rx="18.5"/><rect width="37" height="37" x="67.5" y="284.5" stroke="#FAF8F5" rx="18.5"/><circle cx="86" cy="303" r="8" fill="#F6F2ED"/><rect width="37" height="37" x="111.5" y="284.5" fill="#fff" rx="18.5"/><rect width="37" height="37" x="111.5" y="284.5" stroke="#FAF8F5" rx="18.5"/><circle cx="130" cy="303" r="8" fill="#F6F2ED"/><rect width="151" height="37" x="348.5" y="88.5" stroke="#E9E2DA" rx="4.5"/><rect width="100" height="12" x="374" y="101" fill="#F6F2ED" rx="6"/><rect width="151" height="37" x="348.5" y="136.5" stroke="#E9E2DA" rx="4.5"/><rect width="100" height="12" x="374" y="149" fill="#F6F2ED" rx="6"/><rect width="151" height="37" x="348.5" y="184.5" stroke="#E9E2DA" rx="4.5"/><rect width="100" height="12" x="374" y="197" fill="#F6F2ED" rx="6"/><rect width="151" height="37" x="348.5" y="232.5" stroke="#E9E2DA" rx="4.5"/><rect width="100" height="12" x="374" y="245" fill="#F6F2ED" rx="6"/><rect width="151" height="37" x="348.5" y="280.5" stroke="#E9E2DA" rx="4.5"/><rect width="100" height="12" x="374" y="293" fill="#F6F2ED" rx="6"/><rect width="99" height="99" x="170.5" y="141.5" fill="#fff" rx="49.5"/><rect width="99" height="99" x="170.5" y="141.5" stroke="#FCB900" stroke-width="3" rx="49.5"/><path fill="#4F4F4F" d="M207.624 185.824a6.04 6.04 0 0 1-2.448-.504 5.93 5.93 0 0 1-2.004-1.428 5.522 5.522 0 0 1-1.212-2.184l2.796-.756c.2.688.564 1.22 1.092 1.596a2.982 2.982 0 0 0 1.764.54c.568 0 1.076-.132 1.524-.396.448-.264.8-.62 1.056-1.068a3.06 3.06 0 0 0 .384-1.524c0-.856-.276-1.572-.828-2.148-.552-.576-1.264-.864-2.136-.864-.264 0-.524.036-.78.108a3.517 3.517 0 0 0-.72.3l-1.32-2.28 5.808-4.968.252.696h-8.22v-2.724h10.596v2.736l-4.668 4.488-.024-.852c1.048.072 1.94.364 2.676.876a5.032 5.032 0 0 1 1.704 1.98c.4.808.6 1.692.6 2.652 0 1.088-.268 2.064-.804 2.928a5.78 5.78 0 0 1-2.136 2.052c-.888.496-1.872.744-2.952.744zm12.001-.324v-14.124l-3.24 1.98v-3.192l3.24-1.944h2.952v17.28h-2.952zm11.013-9c-.428.08-.848.114-1.26.102a2.888 2.888 0 0 1-1.098-.222 1.522 1.522 0 0 1-.738-.678 1.932 1.932 0 0 1-.234-.858 36.51 36.51 0 0 1-.012-.99v-5.634h1.44v5.55c0 .26.002.488.006.684.008.196.05.356.126.48.144.24.374.374.69.402.316.028.676.012 1.08-.048v1.212zm-4.518-5.346v-1.134h4.518v1.134h-4.518zm10.393 5.346v-3.12c0-.204-.014-.43-.042-.678a2.344 2.344 0 0 0-.198-.714 1.354 1.354 0 0 0-.456-.57c-.2-.148-.472-.222-.816-.222-.184 0-.366.03-.546.09-.18.06-.344.164-.492.312-.144.144-.26.344-.348.6-.088.252-.132.576-.132.972l-.858-.366c0-.552.106-1.052.318-1.5.216-.448.532-.804.948-1.068.416-.268.928-.402 1.536-.402.48 0 .876.08 1.188.24.312.16.56.364.744.612.184.248.32.512.408.792.088.28.144.546.168.798.028.248.042.45.042.606v3.618h-1.464zm-4.494 0v-8.64h1.29v4.548h.174v4.092h-1.464z"/><path stroke="#E9E2DA" d="M185.5 194h69"/><path fill="#4F4F4F" d="M191.23 214.5v-8.239l-1.89 1.155v-1.862l1.89-1.134h1.722v10.08h-1.722zm8.015.21c-.714 0-1.344-.152-1.89-.455a3.313 3.313 0 0 1-1.281-1.281c-.304-.546-.455-1.176-.455-1.89v-3.248c0-.714.151-1.344.455-1.89a3.263 3.263 0 0 1 1.281-1.274c.546-.308 1.176-.462 1.89-.462s1.341.154 1.883.462c.546.303.973.728 1.281 1.274.308.546.462 1.176.462 1.89v3.248c0 .714-.154 1.344-.462 1.89a3.313 3.313 0 0 1-1.281 1.281c-.542.303-1.169.455-1.883.455zm0-1.603c.354 0 .676-.084.966-.252.289-.173.518-.401.686-.686.168-.289.252-.611.252-.966v-3.493c0-.359-.084-.681-.252-.966a1.865 1.865 0 0 0-.686-.686 1.85 1.85 0 0 0-.966-.259c-.355 0-.677.086-.966.259-.29.168-.518.397-.686.686a1.866 1.866 0 0 0-.252.966v3.493c0 .355.084.677.252.966.168.285.396.513.686.686.289.168.611.252.966.252zm6.149.483v-1.729h1.729v1.729h-1.729zm.014-4.011v-1.729h1.729v1.729h-1.729zm7.85 5.131c-.714 0-1.344-.152-1.89-.455a3.313 3.313 0 0 1-1.281-1.281c-.303-.546-.455-1.176-.455-1.89v-3.248c0-.714.152-1.344.455-1.89a3.263 3.263 0 0 1 1.281-1.274c.546-.308 1.176-.462 1.89-.462s1.342.154 1.883.462c.546.303.973.728 1.281 1.274.308.546.462 1.176.462 1.89v3.248c0 .714-.154 1.344-.462 1.89a3.313 3.313 0 0 1-1.281 1.281c-.541.303-1.169.455-1.883.455zm0-1.603c.355 0 .677-.084.966-.252.29-.173.518-.401.686-.686.168-.289.252-.611.252-.966v-3.493c0-.359-.084-.681-.252-.966a1.858 1.858 0 0 0-.686-.686 1.844 1.844 0 0 0-.966-.259 1.85 1.85 0 0 0-.966.259 1.865 1.865 0 0 0-.686.686 1.866 1.866 0 0 0-.252.966v3.493c0 .355.084.677.252.966.168.285.397.513.686.686.29.168.612.252.966.252zm9.215 1.603c-.714 0-1.344-.152-1.89-.455a3.313 3.313 0 0 1-1.281-1.281c-.303-.546-.455-1.176-.455-1.89v-3.248c0-.714.152-1.344.455-1.89a3.263 3.263 0 0 1 1.281-1.274c.546-.308 1.176-.462 1.89-.462s1.342.154 1.883.462c.546.303.973.728 1.281 1.274.308.546.462 1.176.462 1.89v3.248c0 .714-.154 1.344-.462 1.89a3.313 3.313 0 0 1-1.281 1.281c-.541.303-1.169.455-1.883.455zm0-1.603c.355 0 .677-.084.966-.252.29-.173.518-.401.686-.686.168-.289.252-.611.252-.966v-3.493c0-.359-.084-.681-.252-.966a1.858 1.858 0 0 0-.686-.686 1.844 1.844 0 0 0-.966-.259 1.85 1.85 0 0 0-.966.259 1.865 1.865 0 0 0-.686.686 1.866 1.866 0 0 0-.252.966v3.493c0 .355.084.677.252.966.168.285.397.513.686.686.29.168.612.252.966.252zm7.692 1.393 3.178-10.08h2.471l3.178 10.08h-1.736l-2.884-9.044h.378l-2.849 9.044h-1.736zm1.771-2.184v-1.575h5.292v1.575h-5.292zm8.321 2.184v-10.08h1.519l3.486 7.14 3.486-7.14h1.519v10.08h-1.575v-6.461l-3.094 6.461h-.672l-3.087-6.461v6.461h-1.582z"/><path stroke="#FCB900" stroke-linecap="round" stroke-width="3" d="M184 131v10m-9 5-15-15m10 24h-10"/><path fill="#FCB900" d="M331.166 210.103c-.632 4.591-3.993 8.456-7.592 11.133-3.381 2.467-7.314 4.088-11.432 4.894a35.135 35.135 0 0 1-12.582.148c-4.859-.827-9.493-2.574-13.854-4.838-4.416-2.298-8.529-5.111-12.45-8.164-.48-.384-.987-.771-1.467-1.155-.718-.576.096-1.73.815-1.154 3.779 3.04 7.721 5.867 11.956 8.263 4.156 2.332 8.578 4.231 13.218 5.266 3.995.922 8.165 1.146 12.235.563 3.952-.536 7.799-1.822 11.206-3.945a22.51 22.51 0 0 0 4.577-3.759c1.541-1.631 2.879-3.566 3.552-5.701a11.43 11.43 0 0 0 .373-1.649c.167-.926 1.581-.802 1.445.098z"/><path fill="#FCB900" d="m284.821 211.728-8.967-.446c-1.108-.041-2.358-.094-3.25.654-.772.674-1.093 1.728-1.123 2.723-.047 1.507.595 2.96 1.161 4.292.355.83-.926 1.458-1.278.6-1.061-2.516-2.155-5.633-.288-8.063.901-1.174 2.221-1.6 3.65-1.645 1.516-.066 3.07.099 4.602.177 1.874.079 3.717.184 5.591.263.934.082.809 1.496-.098 1.445z"/><g filter="url(#a)"><ellipse cx="348" cy="189" fill="#fff" rx="57" ry="32"/></g><path fill="#4F4F4F" d="M297.243 182.21c-1.008 0-1.871-.219-2.59-.658a4.388 4.388 0 0 1-1.659-1.848c-.383-.789-.574-1.703-.574-2.744 0-1.041.191-1.955.574-2.744a4.346 4.346 0 0 1 1.659-1.841c.719-.443 1.582-.665 2.59-.665 1.162 0 2.13.292 2.905.875.775.579 1.318 1.36 1.631 2.345l-1.701.469c-.196-.658-.53-1.171-1.001-1.54-.471-.373-1.083-.56-1.834-.56-.677 0-1.241.152-1.694.455-.448.303-.786.73-1.015 1.281-.224.546-.338 1.188-.343 1.925 0 .737.112 1.381.336 1.932.229.546.569.971 1.022 1.274.453.303 1.017.455 1.694.455.751 0 1.363-.187 1.834-.56.471-.373.805-.887 1.001-1.54l1.701.469c-.313.985-.856 1.769-1.631 2.352-.775.579-1.743.868-2.905.868zm6.213-.21v-10.29h1.687V182h-1.687zm3.924-8.708v-1.547h1.687v1.547h-1.687zm0 8.708v-7.56h1.687V182h-1.687zm7.067.21c-.78 0-1.445-.173-1.995-.518a3.447 3.447 0 0 1-1.267-1.428c-.29-.602-.437-1.283-.441-2.044.004-.775.156-1.461.455-2.058a3.429 3.429 0 0 1 1.288-1.414c.555-.345 1.215-.518 1.981-.518.858 0 1.584.217 2.177.651.597.429.987 1.017 1.169 1.764l-1.68.455c-.131-.406-.348-.721-.651-.945a1.676 1.676 0 0 0-1.036-.343c-.439 0-.801.105-1.085.315-.285.205-.495.49-.63.854a3.523 3.523 0 0 0-.203 1.239c0 .719.161 1.3.483 1.743.322.443.8.665 1.435.665.448 0 .8-.103 1.057-.308.261-.205.457-.502.588-.889l1.722.385c-.234.77-.642 1.363-1.225 1.778-.584.411-1.298.616-2.142.616zm4.755-.21.014-10.08h1.708v6.16l2.765-3.64h2.107l-2.933 3.78 3.185 3.78h-2.233l-2.891-3.64V182h-1.722zm14.781 0a6.91 6.91 0 0 1-1.47.119 3.37 3.37 0 0 1-1.281-.259 1.777 1.777 0 0 1-.861-.791 2.272 2.272 0 0 1-.273-1.001 44.04 44.04 0 0 1-.014-1.155v-6.573h1.68v6.475c0 .303.003.569.007.798.01.229.059.415.147.56.168.28.437.436.805.469.369.033.789.014 1.26-.056V182zm-5.271-6.237v-1.323h5.271v1.323h-5.271zm9.853 6.447c-.756 0-1.416-.17-1.981-.511a3.514 3.514 0 0 1-1.316-1.407c-.308-.602-.462-1.293-.462-2.072 0-.793.159-1.489.476-2.086a3.507 3.507 0 0 1 1.323-1.4c.565-.336 1.218-.504 1.96-.504.761 0 1.423.17 1.988.511a3.5 3.5 0 0 1 1.316 1.414c.313.597.469 1.286.469 2.065 0 .784-.159 1.477-.476 2.079a3.514 3.514 0 0 1-1.316 1.407c-.565.336-1.225.504-1.981.504zm0-1.582c.672 0 1.171-.224 1.498-.672.327-.448.49-1.027.49-1.736 0-.733-.166-1.316-.497-1.75-.331-.439-.828-.658-1.491-.658-.453 0-.826.103-1.12.308a1.776 1.776 0 0 0-.644.847c-.14.359-.21.777-.21 1.253 0 .733.166 1.318.497 1.757.336.434.828.651 1.477.651zm8.118 1.372v-10.08h3.997c.681 0 1.239.138 1.673.413.439.271.763.618.973 1.043.215.425.322.863.322 1.316 0 .555-.133 1.027-.399 1.414a1.913 1.913 0 0 1-1.071.784v-.35c.635.145 1.115.446 1.442.903.331.457.497.978.497 1.561 0 .597-.114 1.12-.343 1.568a2.463 2.463 0 0 1-1.022 1.05c-.448.252-1.003.378-1.666.378h-4.403zm1.708-1.589h2.485c.294 0 .558-.058.791-.175.233-.121.415-.289.546-.504.135-.219.203-.478.203-.777 0-.271-.058-.513-.175-.728a1.282 1.282 0 0 0-.511-.511 1.567 1.567 0 0 0-.805-.196h-2.534v2.891zm0-4.466h2.268c.243 0 .46-.047.651-.14a1.08 1.08 0 0 0 .455-.413 1.26 1.26 0 0 0 .168-.672c0-.35-.112-.642-.336-.875-.224-.233-.537-.35-.938-.35h-2.268v2.45zm10.463 6.265c-.756 0-1.416-.17-1.981-.511a3.514 3.514 0 0 1-1.316-1.407c-.308-.602-.462-1.293-.462-2.072 0-.793.159-1.489.476-2.086a3.507 3.507 0 0 1 1.323-1.4c.565-.336 1.218-.504 1.96-.504.761 0 1.423.17 1.988.511a3.5 3.5 0 0 1 1.316 1.414c.313.597.469 1.286.469 2.065 0 .784-.159 1.477-.476 2.079a3.514 3.514 0 0 1-1.316 1.407c-.565.336-1.225.504-1.981.504zm0-1.582c.672 0 1.171-.224 1.498-.672.327-.448.49-1.027.49-1.736 0-.733-.166-1.316-.497-1.75-.331-.439-.828-.658-1.491-.658-.453 0-.826.103-1.12.308a1.776 1.776 0 0 0-.644.847c-.14.359-.21.777-.21 1.253 0 .733.166 1.318.497 1.757.336.434.828.651 1.477.651zm8.654 1.582c-.756 0-1.416-.17-1.981-.511a3.521 3.521 0 0 1-1.316-1.407c-.308-.602-.462-1.293-.462-2.072 0-.793.159-1.489.476-2.086a3.521 3.521 0 0 1 1.323-1.4c.565-.336 1.218-.504 1.96-.504.761 0 1.424.17 1.988.511a3.494 3.494 0 0 1 1.316 1.414c.313.597.469 1.286.469 2.065 0 .784-.158 1.477-.476 2.079a3.507 3.507 0 0 1-1.316 1.407c-.564.336-1.225.504-1.981.504zm0-1.582c.672 0 1.172-.224 1.498-.672.327-.448.49-1.027.49-1.736 0-.733-.165-1.316-.497-1.75-.331-.439-.828-.658-1.491-.658-.452 0-.826.103-1.12.308a1.776 1.776 0 0 0-.644.847c-.14.359-.21.777-.21 1.253 0 .733.166 1.318.497 1.757.336.434.829.651 1.477.651zM372.81 182l.014-10.08h1.708v6.16l2.765-3.64h2.107l-2.933 3.78 3.185 3.78h-2.233l-2.891-3.64V182h-1.722zm-74.601 21v-3.64c0-.238-.016-.502-.049-.791a2.756 2.756 0 0 0-.231-.833 1.582 1.582 0 0 0-.532-.665c-.233-.173-.551-.259-.952-.259-.215 0-.427.035-.637.105a1.46 1.46 0 0 0-.574.364c-.168.168-.303.401-.406.7-.103.294-.154.672-.154 1.134l-1.001-.427c0-.644.124-1.227.371-1.75a2.978 2.978 0 0 1 1.106-1.246c.485-.313 1.083-.469 1.792-.469.56 0 1.022.093 1.386.28.364.187.653.425.868.714a3.1 3.1 0 0 1 .476.924c.103.327.168.637.196.931.033.289.049.525.049.707V203h-1.708zm-5.243 0v-7.56h1.505v2.345h.203V203h-1.708zm11.994.21c-.756 0-1.417-.17-1.981-.511a3.507 3.507 0 0 1-1.316-1.407c-.308-.602-.462-1.293-.462-2.072 0-.793.158-1.489.476-2.086a3.507 3.507 0 0 1 1.323-1.4c.564-.336 1.218-.504 1.96-.504.76 0 1.423.17 1.988.511a3.508 3.508 0 0 1 1.316 1.414c.312.597.469 1.286.469 2.065 0 .784-.159 1.477-.476 2.079a3.521 3.521 0 0 1-1.316 1.407c-.565.336-1.225.504-1.981.504zm0-1.582c.672 0 1.171-.224 1.498-.672.326-.448.49-1.027.49-1.736 0-.733-.166-1.316-.497-1.75-.332-.439-.829-.658-1.491-.658-.453 0-.826.103-1.12.308a1.77 1.77 0 0 0-.644.847c-.14.359-.21.777-.21 1.253 0 .733.165 1.318.497 1.757.336.434.828.651 1.477.651zm6.651 1.372-2.31-7.574 1.652.014 1.477 4.851 1.498-4.851h1.421l1.491 4.851 1.484-4.851h1.652l-2.31 7.56h-1.316l-1.715-5.201-1.708 5.201h-1.316zm16.065.21c-.738 0-1.356-.175-1.855-.525a3.21 3.21 0 0 1-1.127-1.428c-.252-.607-.378-1.286-.378-2.037 0-.761.126-1.442.378-2.044.252-.602.62-1.076 1.106-1.421.49-.35 1.094-.525 1.813-.525.714 0 1.332.175 1.855.525.527.345.935.819 1.225 1.421.289.597.434 1.279.434 2.044 0 .756-.143 1.435-.427 2.037a3.478 3.478 0 0 1-1.204 1.428c-.518.35-1.125.525-1.82.525zm-3.647-.21v-10.08h1.701v4.774h-.21V203h-1.491zm3.388-1.302c.438 0 .8-.11 1.085-.329.284-.219.494-.516.63-.889.14-.378.21-.798.21-1.26 0-.457-.07-.873-.21-1.246a1.915 1.915 0 0 0-.651-.896c-.294-.224-.668-.336-1.12-.336-.43 0-.78.105-1.05.315-.271.205-.472.495-.602.868-.126.369-.189.8-.189 1.295 0 .49.063.922.189 1.295.13.373.333.665.609.875.28.205.646.308 1.099.308zm8.087 1.519c-.56 0-1.022-.093-1.386-.28a2.458 2.458 0 0 1-.868-.714 3.124 3.124 0 0 1-.476-.924 5.039 5.039 0 0 1-.203-.924 7.869 7.869 0 0 1-.042-.714v-4.221h1.708v3.64c0 .233.017.497.049.791.033.289.108.569.224.84.122.266.299.485.532.658.238.173.558.259.959.259.215 0 .427-.035.637-.105.21-.07.399-.189.567-.357.173-.173.311-.408.413-.707.103-.299.154-.677.154-1.134l1.001.427c0 .644-.126 1.227-.378 1.75a2.97 2.97 0 0 1-1.099 1.253c-.485.308-1.082.462-1.792.462zm2.471-.217v-2.345h-.203v-5.215h1.694V203h-1.491zm7.889 0a6.91 6.91 0 0 1-1.47.119 3.37 3.37 0 0 1-1.281-.259 1.777 1.777 0 0 1-.861-.791 2.246 2.246 0 0 1-.273-1.001 44.04 44.04 0 0 1-.014-1.155v-6.573h1.68v6.475c0 .303.002.569.007.798.009.229.058.415.147.56.168.28.436.436.805.469.369.033.789.014 1.26-.056V203zm-5.271-6.237v-1.323h5.271v1.323h-5.271zM351.086 203a6.91 6.91 0 0 1-1.47.119 3.37 3.37 0 0 1-1.281-.259 1.777 1.777 0 0 1-.861-.791 2.246 2.246 0 0 1-.273-1.001 44.04 44.04 0 0 1-.014-1.155v-6.573h1.68v6.475c0 .303.002.569.007.798.009.229.058.415.147.56.168.28.436.436.805.469.369.033.789.014 1.26-.056V203zm-5.271-6.237v-1.323h5.271v1.323h-5.271zm10.25 6.447c-.756 0-1.416-.17-1.981-.511a3.514 3.514 0 0 1-1.316-1.407c-.308-.602-.462-1.293-.462-2.072 0-.793.159-1.489.476-2.086a3.507 3.507 0 0 1 1.323-1.4c.565-.336 1.218-.504 1.96-.504.761 0 1.423.17 1.988.511a3.5 3.5 0 0 1 1.316 1.414c.313.597.469 1.286.469 2.065 0 .784-.159 1.477-.476 2.079a3.514 3.514 0 0 1-1.316 1.407c-.565.336-1.225.504-1.981.504zm0-1.582c.672 0 1.171-.224 1.498-.672.327-.448.49-1.027.49-1.736 0-.733-.166-1.316-.497-1.75-.331-.439-.828-.658-1.491-.658-.453 0-.826.103-1.12.308a1.776 1.776 0 0 0-.644.847c-.14.359-.21.777-.21 1.253 0 .733.166 1.318.497 1.757.336.434.828.651 1.477.651zM366.609 203v-3.64c0-.238-.016-.502-.049-.791a2.7 2.7 0 0 0-.231-.833 1.574 1.574 0 0 0-.532-.665c-.233-.173-.55-.259-.952-.259-.214 0-.427.035-.637.105a1.46 1.46 0 0 0-.574.364c-.168.168-.303.401-.406.7-.102.294-.154.672-.154 1.134l-1.001-.427c0-.644.124-1.227.371-1.75a2.978 2.978 0 0 1 1.106-1.246c.486-.313 1.083-.469 1.792-.469.56 0 1.022.093 1.386.28.364.187.654.425.868.714.215.289.374.597.476.924.103.327.168.637.196.931.033.289.049.525.049.707V203h-1.708zm-5.243 0v-7.56h1.505v2.345h.203V203h-1.708z"/><defs><filter id="a" width="162" height="112" x="267" y="133" color-interpolation-filters="sRGB" filterUnits="userSpaceOnUse"><feFlood flood-opacity="0" result="BackgroundImageFix"/><feBlend in="SourceGraphic" in2="BackgroundImageFix" result="shape"/><feGaussianBlur result="effect1_foregroundBlur_265_589" stdDeviation="12"/></filter></defs></svg>