<svg xmlns="http://www.w3.org/2000/svg" xmlns:xlink="http://www.w3.org/1999/xlink" style="width: 100%; height: 100%" viewBox="0 0 116 19" preserveAspectRatio="none" width="116" height="19"><defs><svg width="116" height="19" viewBox="0 0 116 19" fill="none" xmlns="http://www.w3.org/2000/svg" id="svg281023292_1128">
<path d="M10 15.27L16.18 19L14.545 11.97L20 7.245L12.81 6.625L10 0L7.19 6.625L0 7.245L5.455 11.97L3.82 19L10 15.27Z" fill="#FFB444"></path>
<path d="M34 15.27L40.18 19L38.545 11.97L44 7.245L36.81 6.625L34 0L31.19 6.625L24 7.245L29.455 11.97L27.82 19L34 15.27Z" fill="#FFB444"></path>
<path d="M58 15.27L64.18 19L62.545 11.97L68 7.245L60.81 6.625L58 0L55.19 6.625L48 7.245L53.455 11.97L51.82 19L58 15.27Z" fill="#FFB444"></path>
<path d="M82 15.27L88.18 19L86.545 11.97L92 7.245L84.81 6.625L82 0L79.19 6.625L72 7.245L77.455 11.97L75.82 19L82 15.27Z" fill="#FFB444"></path>
<path d="M106 15.27L112.18 19L110.545 11.97L116 7.245L108.81 6.625L106 0L103.19 6.625L96 7.245L101.455 11.97L99.82 19L106 15.27Z" fill="url(&quot;#svg281023292_1128_paint0_linear_384_2905&quot;)"></path>
<defs>
<linearGradient id="svg281023292_1128_paint0_linear_384_2905" x1="96" y1="9.5" x2="116" y2="9.5" gradientUnits="userSpaceOnUse">
<stop stop-color="#FFB444"></stop>
<stop offset="0.448858" stop-color="#FFB444"></stop>
<stop offset="0.448958" stop-color="#D9D9D9"></stop>
<stop offset="1" stop-color="#D9D9D9"></stop>
</linearGradient>
<linearGradient id="svg281023292_1128_paint0_linear_384_2905" x1="96" y1="9.5" x2="116" y2="9.5" gradientUnits="userSpaceOnUse">
<stop stop-color="#FFB444"></stop>
<stop offset="0.448858" stop-color="#FFB444"></stop>
<stop offset="0.448958" stop-color="#D9D9D9"></stop>
<stop offset="1" stop-color="#D9D9D9"></stop>
</linearGradient></defs>
</svg></defs><use href="#svg281023292_1128"></use></svg>