<svg id="Layer_1" data-name="Layer 1" xmlns="http://www.w3.org/2000/svg" viewBox="0 0 20.26 16.68"><defs><style>.cls-1,.cls-2{fill-rule:evenodd;}.cls-2{stroke:#000;stroke-linecap:round;stroke-linejoin:round;stroke-width:0.22px;}</style></defs><path class="cls-1" d="M14.65,3.37A2.71,2.71,0,1,1,12.74,8h0a2.72,2.72,0,0,1,0-3.83l0,0a2.69,2.69,0,0,1,1.86-.75Zm.9,1.81a1.27,1.27,0,0,0-.9-.37,1.25,1.25,0,0,0-.86.34l0,0a1.27,1.27,0,0,0-.37.9,1.26,1.26,0,0,0,1.26,1.26,1.27,1.27,0,0,0,.9-.37,1.25,1.25,0,0,0,.37-.89A1.27,1.27,0,0,0,15.55,5.18Z" transform="translate(0.17 -3.37)"/><path class="cls-1" d="M10,7.15a1.83,1.83,0,0,1,1.32.55l.05,0a1.86,1.86,0,0,1-.05,2.59,1.85,1.85,0,0,1-2.63,0h0a1.88,1.88,0,0,1,0-2.64A1.87,1.87,0,0,1,10,7.15Zm.31,1.57A.44.44,0,0,0,10,8.59a.43.43,0,0,0-.3.13.39.39,0,0,0-.12.3.41.41,0,0,0,.12.3.43.43,0,0,0,.3.13.44.44,0,0,0,.31-.13.45.45,0,0,0,.12-.3.43.43,0,0,0-.1-.28Z" transform="translate(0.17 -3.37)"/><path class="cls-1" d="M5.25,3.37a2.68,2.68,0,0,1,1.91.79A2.69,2.69,0,0,1,7.16,8h0A2.7,2.7,0,0,1,3.34,8l0,0a2.65,2.65,0,0,1-.75-1.86,2.7,2.7,0,0,1,2.7-2.71Zm.9,1.81a1.27,1.27,0,0,0-.9-.37,1.23,1.23,0,0,0-.89.37,1.27,1.27,0,0,0-.37.9,1.21,1.21,0,0,0,.34.86l0,0a1.23,1.23,0,0,0,.89.37A1.27,1.27,0,0,0,6.15,7a1.25,1.25,0,0,0,.37-.89A1.31,1.31,0,0,0,6.15,5.18Z" transform="translate(0.17 -3.37)"/><path class="cls-2" d="M4.05,18.42H1.21v-5a3.52,3.52,0,0,1,1.32-2.51l.25-.18.53.25a5.33,5.33,0,0,0,2.24.35A5.41,5.41,0,0,0,5,12c-.69,1-.91,5.5-1,6.47ZM5.3,19.7c0-1.35,0-5.88.78-7a4.1,4.1,0,0,1,1.8-1.41c0-.17-.19-.23-.3-.36A2.78,2.78,0,0,1,7,9.48c-.15,0-.21.1-.32.19s-.23.12-.36.19a3.45,3.45,0,0,1-2.51,0,4.39,4.39,0,0,1-1-.52,4.14,4.14,0,0,0-1.11.65,4.75,4.75,0,0,0-1.79,3.5V19.7Z" transform="translate(0.17 -3.37)"/><path class="cls-2" d="M6.47,14.88v5.06h7V15.16a3.05,3.05,0,0,0-3-3.06,3.91,3.91,0,0,0-2.86.66,2.39,2.39,0,0,0-.54.56,4.55,4.55,0,0,0-.28.43,2.89,2.89,0,0,0-.31,1.13Zm5.73,3.78H7.75V14.89a1.86,1.86,0,0,1,.15-.51c.06-.1.12-.21.19-.31a1.52,1.52,0,0,1,.31-.31,3,3,0,0,1,2.06-.38,1.77,1.77,0,0,1,1.74,1.78Z" transform="translate(0.17 -3.37)"/><path class="cls-2" d="M14.61,19c0,.38-.07.82.12.82H20V13.41a4.12,4.12,0,0,0-.3-1.43,4.73,4.73,0,0,0-1.48-2,4.14,4.14,0,0,0-1.11-.65,4.12,4.12,0,0,1-2.15.78,2.29,2.29,0,0,1-1.63-.41A1.36,1.36,0,0,0,13,9.44a2.72,2.72,0,0,1-.34,1c-.23.46-.52.65-.56.81a2.55,2.55,0,0,1,.59.31l.54.4c.9.69,1.41,5.8,1.41,7Zm4.08-.46H15.87c-.09-1.24-.59-6.32-1.48-7.21h.54a4.74,4.74,0,0,0,2.2-.6l.25.18a3.53,3.53,0,0,1,1.1,1.51,3,3,0,0,1,.21,1Z" transform="translate(0.17 -3.37)"/></svg>