<svg id="Layer_1" data-name="Layer 1" xmlns="http://www.w3.org/2000/svg" viewBox="0 0 18.96 19.99"><defs><style>.cls-1{fill-rule:evenodd;}</style></defs><path class="cls-1" d="M6.4.09C7.71.07,9.26,0,10.55,0a1.85,1.85,0,0,1,1.2.51,1.85,1.85,0,0,1,.54,1.26v1.3h1.1a3.36,3.36,0,0,1,3.39,3.33l0,1.29H15.43l0-1.28a1.94,1.94,0,0,0-.6-1.4,2,2,0,0,0-1.41-.57H12.31c0,.8,0,1.59,0,2.38a2.07,2.07,0,0,1-.06.5h.87a.69.69,0,1,1,0,1.37H8.67c-.77,0-1.55,0-2.24,0H3.79a.69.69,0,0,1,0-1.37h.92a1.83,1.83,0,0,1,0-.4c0-.8,0-1.6,0-2.39H3.39A2,2,0,0,0,2,5.18a2,2,0,0,0-.57,1.41l.1,10A2,2,0,0,0,2.14,18a2,2,0,0,0,1.41.57l9.18-.1a4.12,4.12,0,0,0,.28.31,3.69,3.69,0,0,0,1.46.89v0a3.38,3.38,0,0,1-.9.13l-3.9,0-6.11.07a3.2,3.2,0,0,1-.7-.07A3.42,3.42,0,0,1,1.17,19a3.37,3.37,0,0,1-1-2.37L.07,7.87V6.26a3.37,3.37,0,0,1,3.31-3H4.63l0-1.29A1.83,1.83,0,0,1,5.13.63,1.81,1.81,0,0,1,6.4.09ZM8.76,14.35h-2v2h2v-2Zm0-3.2h-2v2h2v-2Zm-3.32,3.2h-2v2h2v-2Zm0-3.2h-2v2h2v-2ZM15.5,17.34a1.76,1.76,0,0,1-.62-.52,2.13,2.13,0,0,1-.37-.87l-1.64.19a3.31,3.31,0,0,0,.87,1.91,2.91,2.91,0,0,0,1.76.8V20h.91V18.84a3.11,3.11,0,0,0,1.93-1A2.79,2.79,0,0,0,19,16a2.47,2.47,0,0,0-.55-1.67,4,4,0,0,0-2.07-1.06V10.76a1.32,1.32,0,0,1,.77,1l1.59-.21a2.56,2.56,0,0,0-.75-1.5,2.71,2.71,0,0,0-1.61-.69V8.75H15.5v.62a2.57,2.57,0,0,0-1.72.81,2.42,2.42,0,0,0-.65,1.73,2.67,2.67,0,0,0,.57,1.73,3.44,3.44,0,0,0,1.8,1.07v2.63Zm0-6.6a1.23,1.23,0,0,0-.59.43,1.16,1.16,0,0,0-.21.67,1,1,0,0,0,.2.62,1.37,1.37,0,0,0,.6.46V10.74Zm.91,6.7a1.29,1.29,0,0,0,.78-.45,1.2,1.2,0,0,0,.3-.82,1.08,1.08,0,0,0-.26-.72,1.5,1.5,0,0,0-.82-.47v2.46Zm-5.93-16-4.07.05a.43.43,0,0,0-.3.13A.39.39,0,0,0,6,1.9C6,3.58,6,5.27,6,7a.45.45,0,0,0,.12.29.48.48,0,0,0,.27.12c1.35-.05,2.74,0,4.11-.05a.39.39,0,0,0,.29-.13A.44.44,0,0,0,11,6.87c0-1.68-.05-3.37-.05-5a.41.41,0,0,0-.13-.29.45.45,0,0,0-.26-.12Z" transform="translate(-0.07 -0.02)"/></svg>