<svg id="Layer_1" data-name="Layer 1" xmlns="http://www.w3.org/2000/svg" viewBox="0 0 19.81 19.62"><defs><style>.cls-1{fill-rule:evenodd;}</style></defs><path class="cls-1" d="M9.42,16.16H6.68L7.36,15l.32-.55a1.16,1.16,0,0,1-.8-1.11,1.17,1.17,0,0,1,2.34,0,1.16,1.16,0,0,1-.8,1.11l.32.55.68,1.19ZM12,6.58l1.13,1,.32.27,0,0,.33.29.12,0,.61-.62,3.12-3.12A.48.48,0,0,0,17,3.69L13.83,6.86l-1.19-1a.48.48,0,0,0-.62.73Zm-9-1H8.51c0-.31,0-.64-.07-1H3.05a.49.49,0,0,0-.48.48.48.48,0,0,0,.48.48Zm0,1.75H8.82c-.08-.31-.15-.63-.2-1H3.05a.48.48,0,0,0-.48.48.49.49,0,0,0,.48.48ZM10.22,2.6,14.59.16a.77.77,0,0,1,.71,0L19.59,2.6a.73.73,0,0,1,.36.64,12.33,12.33,0,0,1-.78,5.25,6.49,6.49,0,0,1-4,3.61.71.71,0,0,1-.57,0,7.29,7.29,0,0,1-4-3.89,12.67,12.67,0,0,1-.72-4.94.72.72,0,0,1,.37-.63Zm4.72-1,3.58,2a10.38,10.38,0,0,1-.66,4.26,5.1,5.1,0,0,1-2.93,2.74,5.85,5.85,0,0,1-3-3,10.64,10.64,0,0,1-.62-4l3.66-2ZM3.05,9.12a.49.49,0,0,1-.48-.48.48.48,0,0,1,.48-.48H5.92a.47.47,0,0,1,.48.48.48.48,0,0,1-.48.48ZM1.59,2.55h7a2.22,2.22,0,0,1,1-1.18L10,1.11H.87a.72.72,0,0,0-.72.72V19a.72.72,0,0,0,.72.72H15.24A.72.72,0,0,0,16,19V13.3l-.35.13a2.14,2.14,0,0,1-1.09.08v4.74H1.59Z" transform="translate(-0.15 -0.07)"/></svg>