<svg id="Layer_1" data-name="Layer 1" xmlns="http://www.w3.org/2000/svg" viewBox="0 0 19.53 20"><defs><style>.cls-1{fill-rule:evenodd;}</style></defs><path class="cls-1" d="M12.24,6.47c.71.06,1,.75,1,1.49V9.79H10.83c.09-.38,1.39-3.07,1.41-3.32ZM2.51,4.94c.13-.23.55-.35.81-.41s.63-.27.88-.12.3.81.4,1.27-.27.92-.84.57a4.19,4.19,0,0,0-.37,2c0,.29.17.68-.21.9a.52.52,0,0,1-.76-.39l0-.47a2.49,2.49,0,0,1,0-.48,4.86,4.86,0,0,1,.36-1.76s.13-.26.13-.29c.05-.21-.13,0-.34-.34a.44.44,0,0,1-.07-.21.82.82,0,0,1,.06-.27Zm13.32-.3c0,.36.11.36.32.66a3.75,3.75,0,0,1,.74,1.92c-.64,0-.82.49-.36,1,.09.1.1.14.19.24a2.18,2.18,0,0,1,.21.22c.55.72.91.21,1.35-.32.17-.2.37-.38.37-.58,0-.44-.29-.6-.71-.5a5.35,5.35,0,0,0-.68-2.13c-.28-.45-.6-1.06-1.1-.91a.44.44,0,0,0-.33.42Zm-.35,7.77a.9.9,0,1,1,.11.37,1.92,1.92,0,0,1-.11-.37Zm-1.13-.15A2,2,0,0,1,15,10.89a2,2,0,1,1,0,2.92,2,2,0,0,1-.59-1.55ZM4,13.27a.9.9,0,1,1,0-1.8.93.93,0,0,1,.6.27.91.91,0,0,1,0,1.26,1,1,0,0,1-.63.27Zm-2.07-.94a2.16,2.16,0,0,0,.54,1.41,2.62,2.62,0,0,0,.25.22,2,2,0,0,0,2.72-.15A2.06,2.06,0,0,0,4,10.3a2.11,2.11,0,0,0-2.07,2ZM9,2.45a1.23,1.23,0,1,1,2.12.84l0,0,0,0A1.24,1.24,0,0,1,9,2.45Zm1.25,2.38a2.34,2.34,0,0,0,2.13-1.38,2.37,2.37,0,0,0-2-3.38A2.28,2.28,0,0,0,8.46.82a2.36,2.36,0,0,0,.06,3.32,2.42,2.42,0,0,0,1.69.69Zm3.79,12c0-.59.34-1.06.82-1.06.13,0,1.12,1.21,1.56,1.21s.47-.24.69-.4l.59-.54c.22-.23.34-.38.71-.11a.8.8,0,0,1,.39.74v2.3H14V16.79Zm-1.14-.24v3a.57.57,0,0,0,.51.51h6c.39,0,.58-.31.58-.71V16.9a2.21,2.21,0,0,0-.76-1.85A2.88,2.88,0,0,0,18,14.51c-.54-.1-.95.65-1.57,1.07a1.21,1.21,0,0,1-.2-.19L15.74,15a1.37,1.37,0,0,1-.23-.2c-.4-.41-.61-.34-1.18-.14a2,2,0,0,0-1.47,1.89Zm-11.28.08a.83.83,0,0,1,.36-.73c.37-.28.51-.14.72.08l.86.78c.55.5,1-.15,1.26-.36.08-.07.72-.67.74-.67a.88.88,0,0,1,.61.33,1.17,1.17,0,0,1,.21.73v2.14H1.58v-2.3ZM.4,16.9A2.29,2.29,0,0,1,1,15.21a2.77,2.77,0,0,1,.78-.51c.73-.3.88-.24,1.26.05s.59.59.94.83l.89-.8c.39-.4.67-.29,1.18-.11a2,2,0,0,1,1.44,1.88v3a.56.56,0,0,1-.5.51H1c-.39,0-.59-.31-.59-.71V16.9ZM7.16,7.53a1.19,1.19,0,0,1,1-1.06L9.21,9c.13.29.23.57.37.83H7.16V7.53ZM6,7.76v2.58c0,.45.32.63.78.63h6.84c.41,0,.78-.19.78-.55V7.65a2.4,2.4,0,0,0-1.46-2.18c-.5-.2-1.21-.5-1.49,0,0,.1-.06.17-.11.28L10.77,7a.43.43,0,0,1-.09.15c-.07-.81-.36-.51.08-1.24a1.33,1.33,0,0,0,.19-.4c0-.44-.64-.32-1.17-.32a.36.36,0,0,0-.35.32c0,.17.43.7.43.86s-.14.54-.16.78c0,0,0,0,0,0L9.19,6.05c-.4-1-.51-1-1.73-.57A2.37,2.37,0,0,0,6,7.76Z" transform="translate(-0.4 -0.07)"/></svg>