<svg id="Layer_1" data-name="Layer 1" xmlns="http://www.w3.org/2000/svg" viewBox="0 0 19.98 19.96"><defs><style>.cls-1{fill-rule:evenodd;}</style></defs><path class="cls-1" d="M15.73,17.52l3,2.44a.72.72,0,0,0,1-.1.71.71,0,0,0-.09-1l-3-2.44a3.68,3.68,0,0,0,.45-1.78A3.73,3.73,0,0,0,16,12l0,0a3.76,3.76,0,0,0-2.65-1.09,3.74,3.74,0,0,0,0,7.48,3.76,3.76,0,0,0,2.38-.85Zm-2.67-2.18V16h-.67v-.63Zm-.67-1.27v-.62h2.08v.62Zm0,.95v-.63h1.34V15ZM9.57,17a8.48,8.48,0,1,1,6.83-5.67,4.24,4.24,0,0,0-1.26-.81,7,7,0,0,0,0-3.68C13.76,8.11,13,8.66,12.61,10.25a4.46,4.46,0,0,0-1.14.36C12,8,13.13,7.29,15.13,5.53a7.43,7.43,0,0,0-2.64-3.1c-.91,1.22-1.4,1.6-1.39,3.09,0,1.84-.28,2.15-1.6,3,1.33,1,1.15,1.32.62,3.11h0a4.86,4.86,0,0,0-.76,1.07A.6.6,0,0,1,9,12.58c-.36-.3.57-2.41.41-2.74-.38-.67-2-1.13-.91-2s1.54-.49,1.53-2.35a4.3,4.3,0,0,1,1.26-3.27,7,7,0,0,0-5.54-.16,7.89,7.89,0,0,1,.74,2.28c-.21.73-3.22,1-1.37,1.38s1.4.64.83,2.11c-.19.48-.37,1-.56,1.47-.58,1.49,2.85,1,1.77,2s-3.31.46-4.15-.68L1.34,8.22A7,7,0,0,0,9,15.64,4.44,4.44,0,0,0,9.57,17ZM5,7.48c.07-.17.19-.41.29-.63-.68-.17-1.54-.28-1.75-1.1C3.25,4.52,4.73,4.24,5.42,4L4.7,2.16A7.43,7.43,0,0,0,1.23,6.52l.9,1c1.17,1.36,1.48,2.53,2.45,3C4,9.68,4.58,8.61,5,7.48Zm10.63,7.15A2.3,2.3,0,0,1,15,16.26a2.32,2.32,0,0,1-1.63.67,2.3,2.3,0,0,1-2.3-2.3A2.31,2.31,0,0,1,15,13l0,0A2.29,2.29,0,0,1,15.65,14.63Z" transform="translate(0.11 -0.16)"/></svg>