<svg id="Layer_1" data-name="Layer 1" xmlns="http://www.w3.org/2000/svg" viewBox="0 0 19.75 19.75"><defs><style>.cls-1{fill-rule:evenodd;}</style></defs><path class="cls-1" d="M4,5.21H1.6a1.55,1.55,0,0,0-1.12.47A1.57,1.57,0,0,0,0,6.8V18.48A1.57,1.57,0,0,0,.48,19.6a1.55,1.55,0,0,0,1.12.47H18.18a1.59,1.59,0,0,0,1.58-1.59V6.8a1.59,1.59,0,0,0-1.58-1.59H15.77a3,3,0,0,1-.67,1,2.78,2.78,0,0,1-.51.41h3.59a.14.14,0,0,1,.1,0,.12.12,0,0,1,0,.1V18.48a.12.12,0,0,1,0,.1.13.13,0,0,1-.1,0H1.6a.15.15,0,0,1-.11,0,.15.15,0,0,1,0-.1V6.8a.15.15,0,0,1,0-.1.16.16,0,0,1,.11,0H5.19a2.78,2.78,0,0,1-.51-.41,2.74,2.74,0,0,1-.67-1ZM9.38.52a.72.72,0,0,1,1,0h0l3.1,3.11a.72.72,0,0,1-1,1L10.61,2.77V9.4a.72.72,0,0,1-1.44,0V2.77L7.28,4.66a.72.72,0,0,1-1-1Z" transform="translate(-0.01 -0.31)"/></svg>