<svg id="Layer_1" data-name="Layer 1" xmlns="http://www.w3.org/2000/svg" viewBox="0 0 19.98 20.17"><defs><style>.cls-1{fill-rule:evenodd;}</style></defs><path class="cls-1" d="M9.31,17.38H2.55a1.1,1.1,0,0,1-.79-.33l0,0a1.14,1.14,0,0,1-.29-.76v-12a1.1,1.1,0,0,1,.32-.78,1.14,1.14,0,0,1,.79-.33H3.82a2.51,2.51,0,0,0,.64,1.09A2.55,2.55,0,0,0,6.26,5h3a2.54,2.54,0,0,0,2.45-1.84H13a1.11,1.11,0,0,1,.78.33l0,0a1.08,1.08,0,0,1,.3.75V9.74h.15a5.07,5.07,0,0,1,1.29.16V4.27a2.53,2.53,0,0,0-.71-1.75l0,0A2.55,2.55,0,0,0,13,1.72H11.72a2.84,2.84,0,0,0-.46-.88l-.18-.2A2.59,2.59,0,0,0,9.27-.11h-3a2.55,2.55,0,0,0-1.8.75l-.18.2a2.48,2.48,0,0,0-.46.88H2.55a2.55,2.55,0,0,0-1.8.75l-.09.1A2.52,2.52,0,0,0,0,4.27v12A2.57,2.57,0,0,0,.66,18L.7,18l.05,0a2.55,2.55,0,0,0,1.8.75h7.71a5.54,5.54,0,0,1-.95-1.44Zm1.57-5.44,2.59,6.37a3.75,3.75,0,1,1,2.64-6.39l0,.05a3.7,3.7,0,0,1,.6,4.38l3,2.43a.73.73,0,0,1,.1,1,.72.72,0,0,1-1,.1l-3-2.43a3.73,3.73,0,0,1-2.37.85ZM11.88,13m3.21,3.19a2.31,2.31,0,1,1,0-3.25l0,0a2.31,2.31,0,0,1,.64,1.6,2.27,2.27,0,0,1-.68,1.62ZM8.59,6.87a.72.72,0,0,1,0,1.44H3.15a.72.72,0,0,1,0-1.44Zm.68-3.31h-3a1.11,1.11,0,0,1-.78-.33l-.06-.07a1.07,1.07,0,0,1-.27-.72,1.11,1.11,0,0,1,.27-.72l.06-.06a1.11,1.11,0,0,1,.78-.33h3a1.12,1.12,0,0,1,.79.33l.06.06a1.15,1.15,0,0,1,.26.72,1.11,1.11,0,0,1-.26.72l-.06.07a1.12,1.12,0,0,1-.79.33Zm-6.12,8a.72.72,0,1,1,0-1.44H7.42a.72.72,0,1,1,0,1.44Z" transform="translate(0 0.11)"/></svg>