<svg id="Layer_1" data-name="Layer 1" xmlns="http://www.w3.org/2000/svg" viewBox="0 0 20 20"><defs><style>.cls-1{fill-rule:evenodd;}</style></defs><path class="cls-1" d="M10,0A10,10,0,1,1,2.93,2.93,10,10,0,0,1,10,0ZM6,6a5.62,5.62,0,0,1,4-1.66,6.14,6.14,0,0,1,1,.08L11.22,3A6.92,6.92,0,0,0,10,2.87,7.13,7.13,0,0,0,5,15l.23.22,1.15-.93L6,14A5.67,5.67,0,0,1,6,6Zm9.8,8.16a7.09,7.09,0,0,0,.64-7.22L15.32,8a5.54,5.54,0,0,1,.35,2,5.66,5.66,0,0,1-1.33,3.65l1.45.5ZM14.13,4.52,10.71,8.17A2.08,2.08,0,0,0,10,8a2,2,0,1,0,2,2,1.91,1.91,0,0,0-.19-.83l3.42-3.66c.41-.43.5-1,.2-1.28s-.86-.15-1.26.29ZM16,4a8.55,8.55,0,1,0,2.5,6A8.5,8.5,0,0,0,16,4Z" transform="translate(0 0)"/></svg>