<svg id="Layer_1" data-name="Layer 1" xmlns="http://www.w3.org/2000/svg" viewBox="0 0 15.14 19.87"><defs><style>.cls-1{fill-rule:evenodd;}</style></defs><path class="cls-1" d="M3,.07h13.7a.72.72,0,0,1,.72.72V5.32a.72.72,0,0,1-.72.72H3a.72.72,0,0,1-.72-.72V.79A.72.72,0,0,1,3,.07Zm7,16.18a.71.71,0,1,1-.71.71.71.71,0,0,1,.71-.71Zm4.23,0a.71.71,0,1,1-.71.71.71.71,0,0,1,.71-.71Zm-2.12,0a.71.71,0,1,1-.7.71.71.71,0,0,1,.7-.71ZM10,9.3a.71.71,0,1,1-.71.71A.71.71,0,0,1,10,9.3Zm4.23,0a.71.71,0,1,1-.71.71.71.71,0,0,1,.71-.71Zm-2.12,0a.71.71,0,1,1-.7.71.71.71,0,0,1,.7-.71ZM10,2.35a.71.71,0,0,0-.71.71.71.71,0,0,0,1.42,0A.71.71,0,0,0,10,2.35Zm4.23,0a.71.71,0,0,0-.71.71.71.71,0,0,0,1.42,0,.71.71,0,0,0-.71-.71Zm-2.12,0a.7.7,0,0,0-.7.71.71.71,0,0,0,1.41,0,.71.71,0,0,0-.71-.71ZM3,14a.72.72,0,0,0-.72.72v4.53a.72.72,0,0,0,.72.72h13.7a.72.72,0,0,0,.72-.72V14.69a.72.72,0,0,0-.72-.72Zm13,1.44H3.68V18.5H15.94V15.41ZM3,7a.72.72,0,0,0-.72.72v4.53A.72.72,0,0,0,3,13h13.7a.72.72,0,0,0,.72-.72V7.74A.72.72,0,0,0,16.66,7Zm13,1.44H3.68v3.09H15.94V8.46Zm0-7H3.68V4.6H15.94Z" transform="translate(-2.24 -0.07)"/></svg>