<svg id="Layer_1" data-name="Layer 1" xmlns="http://www.w3.org/2000/svg" viewBox="0 0 19.26 19.78"><defs><style>.cls-1{fill-rule:evenodd;}</style></defs><path class="cls-1" d="M8.05,13.27H1.59a.15.15,0,0,1-.1,0,.13.13,0,0,1,0-.1V1.74a.13.13,0,0,1,0-.1.12.12,0,0,1,.1,0H17.76a.13.13,0,0,1,.1,0,.18.18,0,0,1,0,.1V13.13a.14.14,0,0,1-.14.14H8.05Zm3.81-.87V10.16h-1.3V12.4Zm2.18,0V8.74h-1.3V12.4Zm.88-4.91V12.4h1.3V7.49ZM8.72,4.34,7.94,3a.38.38,0,0,0-.53-.14.37.37,0,0,0-.16.17L5.77,5.69a.38.38,0,0,0,.15.53.29.29,0,0,0,.2,0l3,0a.4.4,0,0,0,.39-.39.36.36,0,0,0-.06-.2L8.72,4.34ZM4.58,4.5A1.93,1.93,0,0,1,6,4.27l.65-1.16L6.39,3a3.32,3.32,0,0,0-2.47.35,3.26,3.26,0,0,0,.85,6A3.3,3.3,0,0,0,7.23,9a3.26,3.26,0,0,0,1.5-2,1.84,1.84,0,0,0,0-.25l-1.32,0a2,2,0,0,1-.88,1.11,2,2,0,0,1-1.49.21,2,2,0,0,1-1.2-.91A1.92,1.92,0,0,1,3.68,5.7a2,2,0,0,1,.9-1.2ZM17.76.19H1.59A1.55,1.55,0,0,0,0,1.74V13.13a1.57,1.57,0,0,0,.45,1.09,1.55,1.55,0,0,0,1.1.45H7.35v1.5H6.58a1.53,1.53,0,0,0-1.09.45A1.56,1.56,0,0,0,5,17.72v1.55a.7.7,0,0,0,.71.7h8a.7.7,0,0,0,.7-.7V17.72a1.56,1.56,0,0,0-.46-1.1,1.53,1.53,0,0,0-1.09-.45h-.77v-1.5h5.65a1.54,1.54,0,0,0,1.09-.45,1.53,1.53,0,0,0,.45-1.09V1.74A1.53,1.53,0,0,0,18.85.65,1.55,1.55,0,0,0,17.76.19Zm-7,16h-2v-1.5h2v1.5Zm-2.66,1.4h4.83a.12.12,0,0,1,.1.05.12.12,0,0,1,0,.1v.85H6.44v-.85a.12.12,0,0,1,0-.1.14.14,0,0,1,.1-.05Z" transform="translate(-0.04 -0.19)"/></svg>