<svg id="Layer_1" data-name="Layer 1" xmlns="http://www.w3.org/2000/svg" viewBox="0 0 19.75 19.97"><defs><style>.cls-1{fill-rule:evenodd;}</style></defs><path class="cls-1" d="M4.59,19.18v.24a.8.8,0,0,0,.66.66h9.61a.8.8,0,0,0,.66-.66v-.24a.8.8,0,0,0-.66-.66H5.25a.8.8,0,0,0-.66.66Zm5.32-5.11H10c2.76-.87,5.34-.55,8.25-.55a.15.15,0,0,0,.1,0,.16.16,0,0,0,.05-.11V1.69a.14.14,0,0,0-.05-.1.12.12,0,0,0-.1,0H1.64a.14.14,0,0,0-.14.14V13.37a.15.15,0,0,0,0,.11.18.18,0,0,0,.1,0c2.85,0,5.6-.34,8.27.55Zm.74.89v.88a.72.72,0,0,1-1.44,0V15H1.64a1.57,1.57,0,0,1-1.12-.47,1.55,1.55,0,0,1-.46-1.12V1.69A1.58,1.58,0,0,1,.52.57,1.61,1.61,0,0,1,1.64.11H18.22a1.59,1.59,0,0,1,1.59,1.58V13.37A1.6,1.6,0,0,1,18.22,15H10.65ZM9,8a2.51,2.51,0,0,0,.95.18,2.56,2.56,0,0,0,1-.18L11,8c1.24.44,1.58,1.34,2.18,2.38.36.62.63.92.63,1.45a.8.8,0,0,1-.67.66H6.69A.78.78,0,0,1,6,11.85v-.23a6.38,6.38,0,0,1,.62-1.22c.56-1,1-2,2.32-2.44Zm-.8,3a6.55,6.55,0,0,1,.61-1,1.65,1.65,0,0,1,1.15-.52,1.94,1.94,0,0,1,.67.16,1.66,1.66,0,0,1,.79.84,3.06,3.06,0,0,1,.3.56Zm1.76-8.3a2.65,2.65,0,1,1-1.88.78,2.64,2.64,0,0,1,1.88-.78Zm.86,1.8a1.21,1.21,0,0,1,.36.86,1.23,1.23,0,0,1-.36.86,1.2,1.2,0,0,1-.86.35A1.2,1.2,0,0,1,8.72,5.31a1.2,1.2,0,0,1,.35-.86,1.23,1.23,0,0,1,.86-.36A1.21,1.21,0,0,1,10.79,4.45Z" transform="translate(-0.06 -0.11)"/></svg>