<svg id="Layer_1" data-name="Layer 1" xmlns="http://www.w3.org/2000/svg" viewBox="0 0 19.75 20.28"><defs><style>.cls-1{fill-rule:evenodd;}</style></defs><path class="cls-1" d="M1.48-.33H18.07a1.59,1.59,0,0,1,1.58,1.59V12.94a1.57,1.57,0,0,1-1.58,1.58h-5.8v1.54h.8a1.58,1.58,0,0,1,1.12.46,1.61,1.61,0,0,1,.46,1.12v1.6a.72.72,0,0,1-.72.72H5.74A.72.72,0,0,1,5,19.24v-1.6a1.61,1.61,0,0,1,.46-1.12,1.58,1.58,0,0,1,1.12-.46h.8V14.52H1.48a1.62,1.62,0,0,1-1.12-.46A1.62,1.62,0,0,1-.1,12.94V1.26A1.59,1.59,0,0,1,1.48-.33ZM9.64,10.39a4.94,4.94,0,0,1-4.55-3H3.55A6.39,6.39,0,0,0,14.16,10a6.44,6.44,0,0,0,1.57-2.58H14.19a4.94,4.94,0,0,1-4.55,3ZM6.45,3.09A1.55,1.55,0,1,0,8,4.64,1.56,1.56,0,0,0,6.45,3.09Zm6.65,0a1.55,1.55,0,1,0,1.55,1.55A1.55,1.55,0,0,0,13.1,3.09ZM10.83,14.52h-2v1.54h2V14.52Zm-4.37,4h6.75v-.88a.15.15,0,0,0,0-.1.13.13,0,0,0-.1,0H6.6a.13.13,0,0,0-.1,0,.15.15,0,0,0,0,.1v.88ZM18.07,1.11H1.48a.16.16,0,0,0-.1,0,.15.15,0,0,0,0,.1V12.94a.18.18,0,0,0,0,.1.14.14,0,0,0,.1,0H18.07a.14.14,0,0,0,.1,0,.18.18,0,0,0,0-.1V1.26a.15.15,0,0,0,0-.1A.16.16,0,0,0,18.07,1.11Z" transform="translate(0.1 0.33)"/></svg>